<?xml version="1.0" encoding="UTF-8"?>
<svg id="Layer_1" data-name="Layer 1" xmlns="http://www.w3.org/2000/svg" viewBox="0 0 1964.64 1978.08">
  <defs>
    <style>
      .cls-1 {
        fill: #fff;
        stroke-width: 0px;
      }
    </style>
  </defs>
  <path class="cls-1" d="m1637.57,399.99c8.7-3.71,18.1.56,26.43,3.12,43.51,17.43,80.1,46.06,114.51,75.45,27.73,20.9,50.01,46.96,72.73,72.23,38.85,43.53,70.2,92.27,97.11,142.7,5.43,10.39,8.25,22.02,16.29,31.16-10.49-46.96-32.6-91.08-56.47-133.48-42.45-68.64-96.55-131.65-161.99-183.08-66.4-53.6-144.08-94.64-226.24-124.34-85.93-31.33-177.29-51.77-269.83-55.09-15.28-2.39-30.79-1.44-46.2-1.61-39.09-.61-78.16,2.17-116.78,7.51-11.82,1.68-23.71,3.22-35.1,6.61,17.88-34.38,43.01-65.23,71.67-92.64,18.18-15.95,39.52-28.29,58.57-43.21-17.99,6.24-34.76,14.9-52.21,22.19-53.78,24.46-107.25,49.82-157.12,80.59-40.5,24.87-80.37,50.89-116.96,80.49-11.2,10.19-22.12,20.82-35.18,29.07,19.29-25.9,40.66-50.5,64.11-73.3,13.92-17.26,33.11-29.82,49.69-44.67,83.22-64.01,182.46-109.29,286.35-137.46,54.29-15.95,109.83-28.33,166.36-35.36,19.59-2.73,39.28-4.88,58.71-8.61-97.97-4.29-198.75,5.84-294.29,23.33-52.18,9.55-103.81,21.45-155.07,34.51-65.87,16.78-130.91,36.31-194.81,58.55,25.42-25.26,58.07-43.87,92.48-57.13,29.7-12.58,61.29-20.7,92.27-30.14,2.3-.7,4.66-1.32,6.98-1.99,10.96-1.89,176.79-30.37,264.88-39.73,0,0-83.97-11.1-183.85-2.22-33.2,2.21-66.34,5.61-99.24,8.75-122.09,11.64-246.33,22.63-360.04,68.24-22.51,8.49-42.93,20.8-64.22,31.48-14.58,7.71-28.34,16.68-43.54,23.34-19.13,8.32-39.52,13.87-60.2,17.85-9.42,1.66-18.52,5-26,10.56-17.86,13.17-22.83,36.67-15.94,56.13,4.6,13.39,5.99,27.58,11.52,40.72,7.64,16.34,19.69,32.07,36.99,40.72-8.2-19.26-10.59-45.11,7.56-60.28,6.12,21.73,17.46,43.23,37.26,57.23-7.21-17.73-8.25-38.55,3.97-54.69,4.1,16.44,15.65,30.51,27.7,42.82-3.78-14.9-5.91-33.87,8.81-44.55,10.25.1,20.55-.73,30.74.51,26.8,4.63,53.33,11.66,77.87,22.73-10.67,3.76-22.3,3.85-33,7.53-43.38,13.14-82.5,36.31-126.86,47.06-25.47,5.71-52.24,6.61-78.19,3.58-42.87-4.29-80.45-25.7-121.99-34.63-18.95-4.02-38.51-3.73-57.83-3.17-34.12-.49-67.2,10-101.34,9.75-41.3-.9-82.98-16-111.03-44.28-6.49-5.34-10.43-12.83-17.59-17.53,8.12,24.26,25.65,45.4,47.1,61.23,28.74,19,65.12,26.34,100.12,23.17,26.85-.37,53.04-7.34,79.92-7.8,35.13-1.63,69.03,9.71,101.08,21.63-13.87-2.95-28.24-1.39-42.18-3.95-30.95-2.24-62.06,1.93-92.29,7.83-42.55,9.66-83.75,29.41-111.83,60.86-13.79,17.39-25.73,37.33-28.34,58.96,7.21-7.29,11.07-16.87,18.6-23.99,24.67-28.7,58.47-50.21,95.27-63.96,38-15.07,79.84-20.29,120.96-20.63,14.34-.73,28.37,2.78,42.71,2.54,20.41,2.44,41.04,3.22,61.32,6.56,21.21,1.41,42.5,1.56,63.74.49,29.67-2.63,58.71-9.97,85.91-21.14,43.49-16.12,86.62-38.89,135.01-37.43,15.86-1.61,32.87,6.68,38.67,20.56,3.75,14.14.21,29.36-8.28,41.58-12.32,20.43-28.74,38.48-46.12,55.43-11.42,8.17-21.02,18.19-32.6,26.19-13.04-5.12-23.1-14.19-31.54-24.46-.8,13.7,3.83,26.9,8.57,39.67-16.79-3.29-30.95-13.83-37.47-28.41-3.41,16.85-.74,34.28,5.24,50.38-13.23-3.49-26.03-11.19-31.38-23.21-1.49-5.34-.93-10.92-1.52-16.36-8.76,13.07-16.31,29.29-11.02,44.75,4.68,17.65,20.65,31.04,38.27,38.24,10.88,4.44,22.49,8.71,34.65,7.75,12.61-.51,23.26-7.44,33.67-13.29,72.15-41.89,156.11-67.72,241.64-70.64,19.99-2.34,40.27-1.73,60.25.29,53.47,2.05,105.89,14.05,156.35,29.92,45.59,14.07,88.86,33.94,130.22,56.3,34.65,19.41,66.21,42.94,96.92,67.16,14.64,14.24,32.18,25.73,45.72,40.94,23.31,22.02,44.07,46.21,63.15,71.42,48.62,62.5,81.86,134.7,98.39,209.9,3.41,16.24,7.69,32.46,8.04,49.06,4.39,26.63,1.46,53.67,2.34,80.49-4.87,71.59-25.2,142.31-58.89,207.07-12.38,20.85-24.7,41.82-39.12,61.6-19.69,25.48-41.14,49.79-63.71,73.18-28.45,27.14-59.67,51.99-94.61,71.91-49.39,31.53-105.87,52.82-163.88,66.81-35.71,9.41-72.31,16.39-109.38,19.36-33.51,4.46-67.52,1.9-101.26,2.34-28.45-1.51-56.58-6.05-84.71-10.14-104.3-17.78-202.9-62.25-282.2-126.73-22.27-16.85-42-36.31-62.11-55.23-12.64-12.27-21.93-27.04-34.17-39.6,4.74,13.22,14.13,24.43,22.22,36.06,15.73,20.39,30.74,41.41,49.1,59.94,19.32,21.92,42.5,40.62,64,60.69,67.89,55.3,149.56,96,236.43,120.07,19.93,6.61,40.98,9.56,61.56,14.05,31.7,6.68,64.14,9.61,96.52,11.61,27.38-.68,54.96,1.49,82.23-1.46,88.17-4.68,174.71-28.92,252.08-67.76,53.44-28.02,104-61.3,146.74-102.1,34.73-32.04,66.16-67.28,92.35-105.63,15.54-20.09,26.93-42.43,38.35-64.62,35.93-71.18,59.03-148.23,64.27-226.58-.05-21.97-.03-43.94,0-65.91-4.82-71.03-25.84-140.77-57.7-205.56-6.09-12.44-14.05-24.07-19.16-36.87,23.61,30.8,40.74,65.42,56.45,100.07,26.77,57.62,41.68,119.68,45.27,182.1,2.45,17.97,1.62,36.19-.37,54.16-1.41,13.48.77,27.19-2.45,40.53-6.81,54.65-21.37,108.56-44.63,159.33-49.85,105.88-129.34,200.54-230.81,269.01-52.08,34.53-108.79,63.03-168.78,84.25-75.5,24.46-155.13,38.21-235.12,40.67-106.32,1.66-213.14-19.14-309.51-60.45-46.41-21.73-91.31-46.45-132.03-76.4-24.7-16.95-45.67-37.75-67.52-57.62-20.09-17.51-36.65-38.02-54.32-57.52-86.31-101.1-144.72-222.8-163.16-350.31-3.17-16.07-2.5-32.43-5.24-48.55-.45-31.77-.08-63.55-.16-95.32-.72-20.46,2.69-40.72,5.27-60.94,13.84-105.02,49.95-208.27,110.71-298.54,35.1-55.21,81.83-102.98,129.15-149.48-28.45,14.83-57.24,29.36-83.56,47.31-26.13,16.29-49.42,35.97-73.11,55.01-18.63,17.83-39.15,34.09-55.94,53.48-30.55,27.9-54.64,60.94-79.79,92.86-17.56,22-31.11,46.31-46.47,69.59-61.69,104.03-104.56,218.39-117.04,336.58-3.09,16.39-1.94,33.09-4.18,49.57-2.5,54.13.96,108.41,8.84,162.04,7.58,27.55,12.16,55.74,20.55,83.1,13.04,39.6,26.56,79.27,45.85,116.73,21.42,43.53,48.22,84.69,77.12,124.36,22.59,29.99,48.04,58.11,73.88,85.79,15.06,13.05,27.68,28.29,43.78,40.36,22.75,21.65,48.22,40.67,74.41,58.74,34.6,24.48,71.8,45.62,109.86,65.28,27.12,15.19,55.97,27.46,85.16,38.82,43.14,17.85,88.3,31.02,133.57,43.43,66.4,16.8,134.95,25.77,203.45,30.77,27.73,2.78,55.78.49,83.64,1.27,16.95,1.02,33.59-2.58,50.48-2.63,50.83-4.54,101.42-11.78,151.21-22.31,93.2-20.46,182.8-53.99,265.81-97.83,78.32-40.8,148.9-93.27,211.81-152.16,12.16-10.88,22.22-23.53,34.54-34.26,56.93-61.18,104.35-129.78,140.04-203.25,19-40.84,35.82-82.54,49.79-125.04,12.56-42.06,21.9-84.98,27.81-128.24,2.87-16.92,2.71-34.07,5.16-51.04-.53-34.11,2.1-68.4-2.32-102.32-.64-31.04-6.73-61.69-12.06-92.27-10.38-55.16-27.97-109-49.79-161.21-16.1-33.55-30.02-68.16-50.83-99.59-31.46-52.16-71.14-99.88-115.47-143.31-13.04-14.78-29.41-26.58-44.28-39.72-17.64-14.02-36.14-27.14-55.14-39.6-37.2-26.87-78.4-48.84-121.43-66.86-26.45-12-54.05-21.75-82.31-29.48-54.26-13.44-109.75-24.75-166.09-25.99-45.19-4.68-90.7-1-135.7,3.07-45.16,5.85-89.63,15.44-133.73,26.02-21.93,4.32-43.11,11.09-64.35,17.53,22.99-13.9,48.81-23.46,74.38-32.7,66.98-24.87,139.16-38.77,211.44-38.31,74.6-1.37,150.28,6.1,220.83,29.31-5.67-4.66-11.95-8.71-19-11.36-69.3-30.36-145.76-45.48-222.03-50.4-21.5-2.78-43.33-.59-64.96-1.34-14.4-1.02-28.37,2.9-42.71,2.61-52.4,5.51-104.22,16.12-154.22,31.63-42.66,15.12-83.56,34.16-122.92,55.43,5.19-5.78,11.71-10.34,18.2-14.83,28.5-20.95,58.92-39.75,91.36-55.23,71-31.97,150.1-47.31,228.9-48.82,22.43.56,45.11-1.44,67.41,1.76,33.24,2.22,66.27,7.19,98.71,14.27,42.42,7.93,82.61,23.21,121.97,39.38,44.18,19.58,88.22,39.72,129.21,64.6,43.14,25.56,83.59,54.74,123.24,84.59,5.06,3.54,10.19,7,15.54,10.19-8.6-10.83-18.52-20.65-28.32-30.53-9.15-11.02-21.45-19.92-27.65-32.85-5.59-8.29-2.42-21.34,8.06-24.8ZM528.18,179.92c-26.24.78-52.13,5.68-77.07,13.02,12.24-11.97,30.21-15.78,47.37-17.09,15.36.1,30.76-.32,46.12.46-3.78,4.83-10.96,2.63-16.42,3.61Zm929.59,1484.29c-49.82,33.82-105.09,60.4-161.81,83.15-78.16,28.24-159.84,50.35-243.67,57.38-8.94-.54-17.62,1.73-26.48,2.34-33.74.12-67.52,2.37-101.26.29-37.6.71-74.62-5.32-111.64-10.44-73.74-12.12-145.71-33.29-213.51-62.47-61.1-28.55-119.54-62.55-170.59-104.66-14.26-12.97-30.18-24.31-43.91-37.82-37.68-37.43-74.01-76.45-103.5-119.8-34.76-48.96-62.51-101.93-84.79-156.57-9.98-30.29-22.09-60.06-28.1-91.3-9.31-36.82-13.12-74.5-15.75-112.07.59-34.92-2.13-70.01,2.47-104.73-.27-16.46,4.6-32.46,5.88-48.79,8.62-46.09,21.53-91.49,38-135.75,12-28.43,21.69-57.86,37.95-84.61,5.06-7.8,7.13-17.36,14.18-23.95-15.99,35.31-26.91,72.33-38.32,109.07-4.1,20.65-12.06,40.77-12.69,61.91-4.07,19.26-4.47,38.92-7.53,58.33.85,15.63-3.33,30.97-2.77,46.57.51,22.82-.93,45.72.8,68.5,2.66,12.85.48,26.09,3.83,38.82,2.16,32.04,7.45,64.01,16.39,95.17,12.51,47.28,30.42,93.3,52.37,137.58,28.69,60.4,67.14,116.66,112.01,168.06,10.99,12.63,22.09,25.19,34.81,36.41,11.23,13.9,25.52,25.29,38.62,37.65,40.58,38.24,87.29,70.54,136.23,99.32,87.74,48.84,185.57,82.4,286.78,98.15,20.17,1.98,40.11,6.44,60.54,5.78,30.92,3.63,62.17,1.76,93.28,2.22,15.22.76,30.07-3.39,45.32-2.41,32.81-1.54,65.07-7.85,97.32-13.29,40.88-7.24,80.29-19.82,119.76-31.75,36.49-12.8,72.97-25.97,107.52-42.87,63.34-29.36,120.66-68.79,173.14-112.22,8.73-5.54,14.61-14.17,23.95-18.97-40.5,40.36-86.17,75.98-134.85,107.78Zm112.33-1148.47c28.05,16.9,52.43,38.04,77.6,58.16,20.78,19.95,43.72,38.06,62.51,59.67,15.97,15.73,29.22,33.58,43.01,50.92,53.49,67.16,90.24,144.55,114.12,224.51,8.3,27.51,11.79,55.89,17.48,83.86.19,9,4.05,17.61,3.03,26.7-.72,11.49,3.27,22.65,2.63,34.14-.4,26.92.96,53.89-.82,80.74-3.62-14.48-4.95-29.48-4.47-44.36-2.79-20.19-4.74-40.41-8.33-60.57-12.19-66.28-35.26-130.6-63.71-192.47-22.67-43.87-45.69-87.96-76.51-127.63-34.17-48.16-73.45-93.13-116.46-134.8-17.48-19.7-38.99-35.82-59.4-52.82-23.13-16.78-45.27-34.82-69.83-49.89,27.89,12.17,53.44,28.29,79.15,43.84ZM725.39,186.19c-10.01,6.88-22.27,12.29-35.02,11.7-20.41,1.15-38.93-8.71-58.97-10.63,1.14-5.29,6.44-8.44,10.03-12.34,15.78-14.12,33.72-29.29,56.87-30.82,20.89,1.1,40.98,7.27,61.61,10.22-11.42,10.68-22.59,21.65-34.52,31.87Zm7.21-91.15c-49.98,9-100.25,21.43-143.92,46.18,28.64-31.09,71.43-47.77,113.93-56.33,17.78-3.56,35.77-6.93,54.02-6.85,21.16-3.88,42.79-1.19,64.16-2.78,4.42.59,10.78-1.73,13.79,2.22-34.14,5.17-68.13,11.1-101.98,17.56Z"/>
  <path class="cls-1" d="m1179.49,155.49c-10.42,8.75-24.06,18.02-29.85,30.16,30.06-3.26,60.36-2.59,90.6-2.41,67.49.4,137.68,10.87,202.62,27.4,96.02,25.02,186.66,65.62,269.61,116.24,4.95,3.61,10.19,6.93,15.97,9.34-3.09-4.27-6.41-8.53-10.86-11.73-9.13-6.12-16.29-14.34-25.57-20.29-26.13-21.17-54.85-39.36-83.16-57.94-20.44-13.41-43.56-24.33-65.02-36.35-19.51-10.93-42.78-21.02-58.31-36.75-11.51-11.66-16.46-27.44-11.73-42.72,3.78-9.59,11.38-17.4,20.41-23.83,74.4-42.27,197.7-55.73,273.25-60,5.61.06,11.22.05,16.79-.52,8.11-.98,16.4-.47,24.52-1.16,15.23-.36,24.21-.28,24.21-.28-90.31-24.6-282.74-5.21-282.74-5.21-117.84,9.21-203.93,32.52-265.42,57.89-38.29,14.1-74.83,32.56-105.31,58.16Z"/>
  <path class="cls-1" d="m783.99,688.44c21.37-12.02,43.78-22.53,66.96-31.31,36.57-11.78,74.81-18.78,113.24-22.75,24.86.24,50.03-2.1,74.62,2.07,70.66,7.27,137.75,34.31,194.7,72.89-9.37-10.8-21.21-19.43-32.76-28.12-11.98-11.39-26.75-19.75-40.93-28.58-43.27-24.21-89.5-45.14-139.29-55.18-94.58-21.43-196.56-14.29-286.17,21.21-143.66,54.11-253.25,177.47-281.64,317.46-2.66,8.27-1.17,17.02-3.49,25.36-2.29,8.63-.24,17.61-1.81,26.34-3.43,16.8-1.73,34.07-1.7,51.06,2.66,11.49,1.57,23.29,4.02,34.77,4.63,46.01,21.64,90.3,43.17,131.87,28.53,52.04,69.38,98.03,117.23,136.12,25.68,19.58,53.84,36.48,83.67,50.26,40.8,19.82,85.4,31.85,130.11,41.72,26.24,4.17,52.64,8.29,79.36,8.24,42.53,1.76,85.45-.49,126.65-10.95,78.43-16.85,152.01-53.87,207.93-107.15,65.07-58.65,108.29-136.16,126.97-217.76,3.43-17.39,7.05-34.82,7.35-52.52,3.25-21.87-.05-43.89-.61-65.81-2.34-24.48-8.01-48.77-17.32-71.89-11.55-30.97-27.41-60.74-48.14-87.44-33.32-43.53-75.1-82.18-125.11-109.58-57.75-35.38-126.46-54.99-195.55-58.35-34.81-4.24-70.23-.98-104.67,4.39-36.86,5.1-72.01,17.19-106,30.77,1.97-3.41,5.86-5.12,9.23-7.14Zm372.74,337.17c-1.92,23.29-7.13,46.82-18.5,67.89-10.09,17.63-20.33,35.87-36.11,49.84-47.4,48.26-122.87,67.98-191.9,60.08-57.08-5.58-111.59-34.14-143.63-78.06-14.66-18.14-22.89-39.75-28.98-61.4-5.72-19.29-8.54-39.21-7.35-59.23,3.01-23.75,6.17-47.96,16.58-70.18,11.02-25.92,29.97-47.99,50.62-68.01,30.84-26.12,70.63-42.8,112.12-48.35,57.67-6.93,119.62,5.07,165.77,38.65,44.74,31.82,78.85,79.93,81.25,132.8,2.26,11.88,2,24.07.13,35.97Zm-252.45-304.83c28.45-5.19,57.7-7.24,86.65-4.85,43.67,3.17,87.29,13.07,126.06,32.11,27.84,12.12,51.76,30.09,75.53,47.77,22.86,20.68,45.03,42.31,62.25,67.28,31.22,45.94,50.94,99.54,50.24,153.94l-2.34.02c-2.16-25.99-12.27-50.82-21.74-75.23-28.29-62.77-77.63-118.34-141.74-152.99-31.27-17.31-66.61-28.41-102.83-32.5-19.48-.46-38.99-3.54-58.44-.61-14.4.12-28.53,2.71-42.58,5.39-39.87,7.73-79.04,21.34-111.51,44.33-38.38,25.85-71.08,59.74-90.54,99.83-17.25,35.89-25.68,75.28-24.38,114.44,3.57,31.55,8.2,64.4,26.24,92.25-26.29-26.51-41.62-60.6-49.61-95.32-4.47-26.38-9.18-53.48-3.51-80.01,1.17-19.65,7.9-38.6,15.04-57.04,14.77-37.26,39.84-70.98,72.23-97.22,37.02-32.31,85.32-52.06,134.98-61.6Zm-204.17-16.41c-26.4,18.92-46.87,43.77-65.57,69.01-31.24,41.26-50.11,89.86-57.86,139.38-2.5,15.19-4.42,30.43-3.49,45.84-1.78,39.45,6.04,79.1,22.57,115.63,13.39,32.38,35,61.25,58.2,88.32,18.66,18.61,37.42,37.38,59.43,52.74,46.25,34.46,103.44,55.35,162.05,63.86,10.65,2.32,21.74,1.07,32.57,2.39-20.31,3.56-40.8-.56-60.89-3.17-77.07-10.12-147.78-47.7-201.35-98.64-13.17-14.75-28.16-28.12-39.6-44.11-43.51-57.96-67.12-128.6-64.94-198.95-.96-21.46,5.14-42.28,10.09-63.06-16.82,31.29-23.79,65.96-30.84,99.95,0,8.95-3.7,17.46-3.22,26.41.16,28.51-1.7,57.23,2.48,85.52-11.5-23.75-11.87-50.28-15.73-75.54.29-13.85-.74-27.77.61-41.6,2.69-9.75,1.14-19.95,4.07-29.65,3.62-32.63,17.96-63.06,31.72-93,25.92-49.5,62.49-94.54,107.97-130.34,46.47-38.09,103.47-65.81,164.47-78.01-10.75,6.78-23.58,10.34-34.84,16.48-27.23,15-55.33,29.72-77.9,50.52Z"/>
</svg>